<svg width="88" height="71" viewBox="0 0 88 71" fill="none" xmlns="http://www.w3.org/2000/svg">
<path d="M77.1861 30.0357C77.053 30.1451 76.9198 30.2498 76.7835 30.3528H43.1579C42.9074 30.2498 42.6581 30.1441 42.4098 30.0357C38.8599 28.4905 35.5558 26.4329 32.603 23.9285C30.6422 22.267 28.8384 20.5515 27.5308 18.9439C25.7064 16.7005 24.0262 14.2557 23.2447 11.47C22.4649 8.68439 22.6979 5.49128 24.4399 3.18127C24.9793 2.47067 25.6425 1.86323 26.3975 1.38811C26.5227 1.30884 26.6495 1.23274 26.7794 1.1614C28.8686 -0.0118424 31.5045 -0.297226 33.8568 0.310004C37.225 1.18042 40.0242 3.61093 42.0214 6.46158C44.0186 9.31064 45.3152 12.583 46.5927 15.8189C47.8893 10.0431 51.8155 4.86978 57.1192 2.2395C62.4212 -0.390769 69.0088 -0.359059 74.1982 2.49001C75.8311 3.39188 77.306 4.55393 78.5651 5.93045C78.6903 6.06521 78.8124 6.20315 78.9328 6.34267C81.4641 9.27418 83.0477 13.0285 83.1776 16.9002C83.3441 21.8881 81.033 26.8981 77.1861 30.0357Z" fill="#F2F2F2"/>
<path d="M44.5017 30.3528H44.0262C44.0199 30.2466 44.0119 30.142 44.0024 30.0357C43.8362 27.9619 43.4883 25.9067 42.9626 23.8937C41.7566 19.2981 39.6966 14.9705 36.8902 11.1371C34.0918 7.2914 30.5641 4.03427 26.508 1.55143C26.4784 1.53443 26.4529 1.51088 26.4337 1.48259C26.4145 1.45429 26.402 1.42199 26.3971 1.38813C26.3894 1.34385 26.3943 1.29829 26.4115 1.25673C26.4286 1.21518 26.4572 1.17936 26.4939 1.15344C26.5306 1.12751 26.5739 1.11256 26.6188 1.11033C26.6637 1.10809 26.7083 1.11866 26.7474 1.1408C26.7583 1.14711 26.7689 1.15398 26.7791 1.16141C29.077 2.5624 31.2102 4.21745 33.1384 6.09535C36.5874 9.46067 39.3684 13.4485 41.3347 17.8483C43.0695 21.7018 44.132 25.8237 44.4764 30.0357C44.4859 30.142 44.4938 30.2482 44.5017 30.3528Z" fill="white"/>
<path d="M78.9327 6.34266C78.9293 6.34444 78.9255 6.34552 78.9217 6.34583C78.5745 6.40925 78.2258 6.47584 77.8802 6.54718C75.0437 7.12985 72.2671 7.97319 69.5856 9.06647C66.9111 10.1582 64.3386 11.4846 61.898 13.0301C59.4543 14.5748 57.1499 16.3297 55.0109 18.2748C52.872 20.2171 50.9098 22.3458 49.1478 24.6357C47.8308 26.3514 46.6333 28.1556 45.5639 30.0357C45.5037 30.1404 45.4451 30.2466 45.3864 30.3528H44.8428C44.8998 30.2466 44.9585 30.1404 45.0187 30.0357C46.3125 27.732 47.7959 25.5402 49.4537 23.483C51.287 21.2063 53.3191 19.0973 55.5261 17.1808C57.719 15.2752 60.0726 13.5629 62.5606 12.063C65.0589 10.557 67.6856 9.2752 70.4098 8.23252C73.0535 7.2216 75.783 6.45112 78.565 5.93044C78.6426 5.91617 78.7187 5.9019 78.7964 5.88763C79.0928 5.83372 79.2196 6.28082 78.9327 6.34266Z" fill="white"/>
<path d="M85.3057 30.0357H8.90555C8.1912 30.0367 7.50641 30.321 7.00129 30.8263C6.49617 31.3315 6.21195 32.0165 6.21094 32.731V62.2205C6.21195 62.935 6.49617 63.62 7.00129 64.1252C7.50641 64.6305 8.1912 64.9147 8.90555 64.9158H85.3057C86.02 64.9147 86.7048 64.6305 87.2099 64.1252C87.715 63.62 87.9993 62.935 88.0003 62.2205V32.731C87.9993 32.0165 87.715 31.3315 87.2099 30.8263C86.7048 30.321 86.02 30.0367 85.3057 30.0357ZM87.6833 62.2205C87.6825 62.851 87.4318 63.4554 86.986 63.9013C86.5403 64.3471 85.936 64.5979 85.3057 64.5987H8.90555C8.27521 64.5979 7.6709 64.3471 7.22518 63.9013C6.77946 63.4554 6.52872 62.851 6.52795 62.2205V32.731C6.52872 32.1005 6.77946 31.496 7.22518 31.0502C7.6709 30.6044 8.27521 30.3536 8.90555 30.3528H85.3057C85.936 30.3536 86.5403 30.6044 86.986 31.0502C87.4318 31.496 87.6825 32.1005 87.6833 32.731V62.2205Z" fill="#3F3D56"/>
<path d="M22.7774 56.6714C20.9591 56.6714 19.1816 56.1321 17.6698 55.1216C16.158 54.1112 14.9796 52.675 14.2838 50.9948C13.588 49.3145 13.4059 47.4655 13.7606 45.6818C14.1154 43.898 14.9909 42.2595 16.2767 40.9734C17.5624 39.6874 19.2005 38.8116 20.9838 38.4568C22.7672 38.102 24.6156 38.2841 26.2955 38.9801C27.9754 39.6761 29.4112 40.8547 30.4214 42.3669C31.4316 43.8791 31.9707 45.657 31.9707 47.4757C31.968 49.9137 30.9985 52.2511 29.275 53.975C27.5515 55.6989 25.2148 56.6686 22.7774 56.6714ZM22.7774 38.5972C21.0218 38.5972 19.3056 39.1179 17.8459 40.0935C16.3862 41.0691 15.2485 42.4557 14.5767 44.0781C13.9048 45.7004 13.7291 47.4856 14.0716 49.2079C14.4141 50.9301 15.2595 52.5121 16.5008 53.7538C17.7422 54.9955 19.3238 55.8411 21.0457 56.1837C22.7675 56.5263 24.5523 56.3505 26.1742 55.6785C27.7961 55.0065 29.1825 53.8685 30.1578 52.4084C31.1331 50.9483 31.6537 49.2318 31.6537 47.4757C31.6511 45.1218 30.715 42.8651 29.051 41.2006C27.3869 39.5361 25.1307 38.5999 22.7774 38.5972Z" fill="#3F3D56"/>
<path d="M78.4881 41.6096H41.8731C41.3613 41.6099 40.8695 41.8083 40.5007 42.1632C40.1319 42.5182 39.9148 43.0022 39.8949 43.5137C39.8923 43.5395 39.8912 43.5654 39.8917 43.5914C39.8925 44.1168 40.1015 44.6204 40.4729 44.9919C40.8443 45.3634 41.3478 45.5725 41.8731 45.5732H78.4881C79.0135 45.5732 79.5175 45.3644 79.8891 44.9927C80.2606 44.6211 80.4694 44.117 80.4694 43.5914C80.4694 43.0658 80.2606 42.5617 79.8891 42.19C79.5175 41.8184 79.0135 41.6096 78.4881 41.6096Z" fill="#5D9ED3"/>
<path d="M78.4881 49.3783H41.8731C41.3613 49.3786 40.8695 49.577 40.5007 49.932C40.1319 50.287 39.9148 50.7709 39.8949 51.2825C39.8923 51.3083 39.8912 51.3342 39.8917 51.3601C39.8925 51.8855 40.1015 52.3892 40.4729 52.7607C40.8443 53.1322 41.3478 53.3412 41.8731 53.342H78.4881C79.0135 53.342 79.5175 53.1332 79.8891 52.7615C80.2606 52.3898 80.4694 51.8858 80.4694 51.3601C80.4694 50.8345 80.2606 50.3305 79.8891 49.9588C79.5175 49.5871 79.0135 49.3783 78.4881 49.3783Z" fill="#5D9ED3"/>
<path d="M21.7518 51.4936C21.4953 51.4941 21.2456 51.4111 21.0403 51.2572L21.0276 51.2476L18.3482 49.1957C18.2241 49.1006 18.12 48.982 18.0417 48.8466C17.9635 48.7113 17.9126 48.5618 17.8921 48.4068C17.8716 48.2518 17.8818 48.0943 17.9222 47.9432C17.9625 47.7921 18.0322 47.6505 18.1273 47.5264C18.2224 47.4023 18.341 47.2981 18.4763 47.2198C18.6116 47.1415 18.761 47.0907 18.916 47.0702C19.071 47.0496 19.2285 47.0599 19.3795 47.1002C19.5305 47.1406 19.6721 47.2103 19.7962 47.3054L21.5317 48.6365L25.633 43.2865C25.7281 43.1624 25.8468 43.0583 25.9821 42.9801C26.1175 42.9018 26.2669 42.851 26.4219 42.8306C26.5769 42.8101 26.7344 42.8204 26.8854 42.8608C27.0364 42.9012 27.1779 42.971 27.302 43.0661L27.2765 43.1008L27.3027 43.0666C27.5529 43.259 27.7166 43.5428 27.7579 43.8558C27.7992 44.1687 27.7147 44.4853 27.523 44.736L22.6989 51.0289C22.5873 51.1739 22.4438 51.2913 22.2796 51.3719C22.1154 51.4524 21.9348 51.4941 21.7518 51.4936Z" fill="#5D9ED3"/>
<path d="M60.5495 70.7457H0.158506C0.116468 70.7457 0.0761511 70.7289 0.0464254 70.6992C0.0166996 70.6695 0 70.6292 0 70.5871C0 70.5451 0.0166996 70.5047 0.0464254 70.475C0.0761511 70.4453 0.116468 70.4286 0.158506 70.4286H60.5495C60.5915 70.4286 60.6318 70.4453 60.6616 70.475C60.6913 70.5047 60.708 70.5451 60.708 70.5871C60.708 70.6292 60.6913 70.6695 60.6616 70.6992C60.6318 70.7289 60.5915 70.7457 60.5495 70.7457Z" fill="#3F3D56"/>
<path d="M69.4769 22.8931C66.1656 22.4376 62.8029 22.5134 59.5155 23.1178C56.2378 23.7172 53.0734 24.8238 50.1363 26.3979C48.4857 27.285 46.9191 28.3203 45.4557 29.491C45.2167 29.682 45.5551 30.0166 45.792 29.8273C48.3597 27.7842 51.238 26.1658 54.3176 25.0336C57.3728 23.9033 60.5842 23.2517 63.8382 23.1017C65.6794 23.0171 67.5245 23.1008 69.3505 23.3518C69.4112 23.3663 69.4752 23.3573 69.5295 23.3264C69.5838 23.2956 69.6244 23.2453 69.643 23.1857C69.6594 23.1249 69.6511 23.0601 69.62 23.0053C69.5889 22.9505 69.5375 22.9102 69.4769 22.8931H69.4769Z" fill="white"/>
</svg>
